<svg width="13" height="16" viewBox="0 0 13 16" fill="none" xmlns="http://www.w3.org/2000/svg">
<path fill-rule="evenodd" clip-rule="evenodd" d="M10.664 0.754781L6.58044 2.0416C6.32985 2.12057 6.17284 2.39252 6.22975 2.64901C6.28666 2.90551 6.53593 3.04943 6.78652 2.97047L9.77469 2.02883L8.00844 5.08806C5.40831 3.854 2.25382 4.80572 0.78963 7.34177C-0.751087 10.0104 0.163243 13.4227 2.83184 14.9634C5.50044 16.5041 8.91277 15.5898 10.4535 12.9212C11.9177 10.3851 11.1646 7.1774 8.79583 5.54266L10.5621 2.48343L11.2407 5.54207C11.2976 5.79857 11.5469 5.94249 11.7974 5.86352C12.048 5.78456 12.205 5.51261 12.1481 5.25611L11.2208 1.07623C11.1639 0.819733 10.9146 0.675815 10.664 0.754781ZM3.31387 14.1285C1.10636 12.854 0.350016 10.0313 1.62452 7.8238C2.89902 5.61629 5.72175 4.85995 7.92925 6.13445C10.1368 7.40895 10.8931 10.2317 9.6186 12.4392C8.3441 14.6467 5.52137 15.403 3.31387 14.1285Z" fill="#1F91FB"/>
</svg>
